<svg height="32" viewBox="0 0 30 32" width="30" xmlns="http://www.w3.org/2000/svg"><path d="m26.1691 12.2898c-.3368-1.6759-2.1991-10.20387-5.198-10.72904-3.3236-.582895-4.652.79874-4.652.79874s-.7727-1.749908-4.0976-2.3328029c-2.99559-.5251741-7.68103 6.8549129-8.57508 8.3145829-1.66523-.12479-2.664446-.09511-2.703126.12073 0 0-.173654.90971-.18695.98734-.096698.54591 5.992886 2.06985 13.602656 3.40425 7.6097 1.3341 14.0241 1.9731 14.1212 1.4276.0056-.0333.1861-.9581.1861-.9581.0395-.2154-.8896-.5837-2.4972-1.0333zm-13.7979 2.9481c.5839 0 1.0573.4776 1.0573 1.067 0 .589-.4734 1.0666-1.0573 1.0666-.5838 0-1.0572-.4776-1.0572-1.0666 0-.5894.4734-1.067 1.0572-1.067zm10.8661 1.067c0-.5894-.4734-1.067-1.0576-1.067-.5838 0-1.0572.4776-1.0572 1.067 0 .589.4734 1.0666 1.0572 1.0666.5842 0 1.0576-.4776 1.0576-1.0666zm2.8061-.7377c-.3513-.0179-.7437-.0452-1.1716-.0805.2772 1.0369.417 2.1055.4166 3.1795 0 6.7301-5.4224 12.2054-12.0869 12.2054-2.2563.0024-4.46787-.6345-6.3833-1.8385l-.34409-.2163-.31427.2618c-.48188.4097-1.01453.7536-1.58505 1.0239.29896-.5325.4565-1.1336.4569-1.7454-.0004-.1951-.01652-.3894-.04835-.5813l-.02981-.1849-.13216-.1309c-4.29018-4.1656-4.934433-10.8669-1.51816-15.7882-.4158-.1134-.79373-.2252-1.12936-.3252-3.45414 5.2973-2.730114 12.3201 1.73171 16.7849.00324.0355.01961.0711.03597.1066.01828.0397.03655.0793.03655.119-.00161 1.3475-1.14668 2.4393-2.35541 2.4409v1.1268c1.61164-.0008 3.54964-.6077 5.00696-1.7276 2.01415 1.1825 4.27207 1.8048 6.60247 1.8028 7.2794 0 13.1869-5.9814 13.1869-13.3326.0008-1.0439-.1354-2.0845-.3756-3.1002z" fill="#fff" fill-rule="evenodd" transform="translate(1)"/></svg>