<svg width="160" height="160" viewBox="0 0 160 160" fill="none" xmlns="http://www.w3.org/2000/svg"><rect width="160" height="160" rx="80" fill="#001E40"/><path d="M34 85.143h16.516c1.236 13.834 13.07 24.685 27.484 24.685 14.415 0 26.248-10.85 27.484-24.684H122C120.732 107.916 101.518 126 78 126s-42.733-18.083-44-40.857z" fill="url(#paint0_linear)"/><path d="M105.96 38H122v39.286h-16.451V54.522H65.257c-8.177 0-14.806 6.657-14.806 14.87v7.893H34v-7.893c0-17.164 13.716-31.11 30.74-31.388l.517-.004h40.703z" fill="url(#paint1_linear)"/><path fill-rule="evenodd" clip-rule="evenodd" d="M67.785 85.143a3.929 3.929 0 100-7.857 3.929 3.929 0 000 7.857zm22 0a3.929 3.929 0 100-7.857 3.929 3.929 0 000 7.857z" fill="#fff"/><defs><linearGradient id="paint0_linear" x1="70.887" y1="114.458" x2="97.441" y2="135.714" gradientUnits="userSpaceOnUse"><stop stop-color="#50D5FF"/><stop offset="1" stop-color="#3C5AD0"/></linearGradient><linearGradient id="paint1_linear" x1="13.586" y1="60.795" x2="32.204" y2="95.434" gradientUnits="userSpaceOnUse"><stop stop-color="#3C5AD0"/><stop offset="1" stop-color="#50D5FF"/></linearGradient></defs></svg>