<svg width="160" height="160" viewBox="0 0 160 160" fill="none" xmlns="http://www.w3.org/2000/svg"><path fill-rule="evenodd" clip-rule="evenodd" d="M80 160c44.183 0 80-35.817 80-80S124.183 0 80 0 0 35.817 0 80s35.817 80 80 80z" fill="#328EF5"/><path d="M42.194 43.95a.675.675 0 01-.193-.514.677.677 0 01.258-.485c22.126-17.073 53.04-17.062 75.176.028l.064.057a.668.668 0 01.002.938l-18.423 18.6a.654.654 0 01-.81.097c-11.185-6.991-25.638-6.996-36.826-.008a.654.654 0 01-.81-.098L42.194 43.95z" fill="#fff"/><path d="M62.57 102.41c9.788 9.863 25.706 9.868 35.487.011 8.247-8.312 9.704-21.124 3.542-31.152a.476.476 0 01.069-.584l13.176-13.279a.462.462 0 01.663 0l.042.047c13.43 17.716 11.772 42.95-3.861 58.706-17.298 17.434-45.446 17.427-62.748-.011-15.607-15.729-17.3-40.896-3.97-58.6a.467.467 0 01.775-.178c.006.005.014.008.018.017l13.182 13.286a.476.476 0 01.07.582c-6.16 10.026-4.698 22.836 3.556 31.155z" fill="#fff"/><path fill-rule="evenodd" clip-rule="evenodd" d="M69.142 84.923a3.692 3.692 0 100-7.385 3.692 3.692 0 000 7.385zm22.32 0a3.692 3.692 0 100-7.385 3.692 3.692 0 000 7.385z" fill="#fff"/></svg>