<svg width="162" height="162" viewBox="0 0 162 162" fill="none" xmlns="http://www.w3.org/2000/svg"><path fill-rule="evenodd" clip-rule="evenodd" d="M81 161c44.183 0 80-35.817 80-80S125.183 1 81 1 1 36.817 1 81s35.817 80 80 80z" fill="#fff" stroke="#E9EEF4"/><path fill-rule="evenodd" clip-rule="evenodd" d="M81.28 22.333c-.832 0-1.664.22-2.41.66-9.335 5.516-17.165 13.446-22.643 22.935-5.646 9.78-8.63 20.982-8.63 32.394 0 9.12 1.845 17.931 5.484 26.186a63.62 63.62 0 0014.922 21.013l.015.015.005.005-.041.037a53.731 53.731 0 01-4.296 3.458l-.107.079a6.156 6.156 0 00-2.483 4.971c0 3.387 2.699 6.142 6.016 6.142a5.87 5.87 0 001.715-.256 61.505 61.505 0 0012.454-4.973V22.333z" fill="url(#paint0_linear)"/><path fill-rule="evenodd" clip-rule="evenodd" d="M68.018 125.697l-.015-.014-.061-.06m.077.076v-.001l.004.005-.004-.004zm13.262 9.476c.782-.416 1.556-.85 2.321-1.301l.089-.051c9.335-5.523 17.165-13.467 22.643-22.97 5.646-9.796 8.631-21.015 8.631-32.444 0-11.43-2.985-22.648-8.631-32.444-5.477-9.504-13.308-17.447-22.643-22.97a4.73 4.73 0 00-2.41-.662v112.842z" fill="url(#paint1_linear)"/><path fill-rule="evenodd" clip-rule="evenodd" d="M109.912 52.846L81.281 81.28V22.333c.834 0 1.668.22 2.415.658 9.358 5.49 17.206 13.384 22.697 22.83a63.404 63.404 0 013.519 7.025z" fill="#ECF6FE"/><defs><linearGradient id="paint0_linear" x1="52.021" y1="53.304" x2="52.021" y2="140.228" gradientUnits="userSpaceOnUse"><stop stop-color="#13BDFF"/><stop offset="1" stop-color="#3F83FF"/></linearGradient><linearGradient id="paint1_linear" x1="73.448" y1="48.761" x2="73.448" y2="135.175" gradientUnits="userSpaceOnUse"><stop stop-color="#D8EDFF"/><stop offset="1" stop-color="#8DC9FF"/></linearGradient></defs></svg>