
<svg width="32px" height="32px" viewBox="685 437 32 32" version="1.1" xmlns="http://www.w3.org/2000/svg" xmlns:xlink="http://www.w3.org/1999/xlink">
    <!-- Generator: Sketch 42 (36781) - http://www.bohemiancoding.com/sketch -->
    <desc>Created with Sketch.</desc>
    <defs></defs>
    <g id="小图标/警示/小号" stroke="none" stroke-width="1" fill="none" fill-rule="evenodd" transform="translate(685.000000, 437.000000)">
        <path d="M32,16.1975309 C32,24.8367407 24.8367407,32 15.8024691,32 C7.16325926,32 0,24.8367407 0,16.1975309 C0,7.16325926 7.16325926,0 15.8024691,0 C24.8367407,0 32,7.16325926 32,16.1975309 Z M15.3949589,8 C14.8454583,8 14.4215679,8.45292492 14.4473298,8.99392529 L14.9333333,19.2 L17.0666667,19.2 L17.5526702,8.99392529 C17.5788097,8.44499551 17.1550537,8 16.6050411,8 L15.3949589,8 Z M16,24 C16.8836556,24 17.6,23.2836556 17.6,22.4 C17.6,21.5163444 16.8836556,20.8 16,20.8 C15.1163444,20.8 14.4,21.5163444 14.4,22.4 C14.4,23.2836556 15.1163444,24 16,24 Z" id="Fill-" fill="#F43530"></path>
    </g>
</svg>
