<svg height="32" viewBox="0 0 30 32" width="30" xmlns="http://www.w3.org/2000/svg"><path d="M27.17 12.29c-.338-1.676-2.2-10.204-5.199-10.73-3.324-.582-4.652.8-4.652.8S16.546.61 13.221.026c-2.995-.525-7.68 6.855-8.575 8.314-1.665-.125-2.664-.095-2.703.121l-.187.987c-.096.546 5.993 2.07 13.603 3.405 7.61 1.334 14.024 1.973 14.121 1.427l.186-.958c.04-.215-.89-.584-2.497-1.033zm-13.8 2.948c.584 0 1.057.478 1.057 1.067s-.473 1.067-1.057 1.067a1.062 1.062 0 01-1.057-1.067c0-.59.473-1.067 1.057-1.067zm10.866 1.067c0-.59-.473-1.067-1.057-1.067s-1.058.478-1.058 1.067.474 1.067 1.058 1.067c.584 0 1.057-.478 1.057-1.067zm2.806-.738a37.875 37.875 0 01-1.171-.08c.277 1.037.417 2.105.416 3.18 0 6.73-5.422 12.205-12.087 12.205a11.968 11.968 0 01-6.383-1.839l-.344-.216-.314.262a7.216 7.216 0 01-1.585 1.024 3.57 3.57 0 00.408-2.327l-.03-.185-.132-.131C1.531 23.294.887 16.593 4.303 11.672a49.34 49.34 0 01-1.13-.325C-.28 16.644.444 23.667 4.907 28.132c.003.035.02.07.036.106.018.04.036.08.036.12-.002 1.347-1.147 2.438-2.355 2.44v1.127c1.611-.001 3.55-.608 5.007-1.728A12.966 12.966 0 0014.232 32c7.28 0 13.187-5.981 13.187-13.333 0-1.044-.135-2.084-.376-3.1z" fill="#fff" fill-rule="evenodd"/></svg>