<svg width="110" height="124" viewBox="0 0 110 124" fill="none" xmlns="http://www.w3.org/2000/svg"><path fill-rule="evenodd" clip-rule="evenodd" d="M80.467 6.048c11.508 2.035 18.653 35.081 19.946 41.575 6.169 1.742 9.734 3.17 9.582 4.004 0 0-.692 3.584-.714 3.713-.373 2.113-24.986-.363-54.186-5.532C25.895 44.637 2.528 38.732 2.9 36.616c.05-.3.717-3.826.717-3.826.149-.836 3.983-.951 10.373-.468C17.42 26.666 35.4-1.932 46.894.103c12.758 2.26 15.724 9.04 15.724 9.04s5.097-5.354 17.85-3.095zm14.971 53.963c1.642.137 3.148.242 4.496.312.922 3.936 1.444 7.968 1.441 12.013 0 28.486-22.668 51.664-50.6 51.664-8.943.008-17.607-2.404-25.336-6.986-5.592 4.34-13.028 6.691-19.212 6.695v-4.367c4.638-.006 9.032-4.237 9.038-9.458 0-.154-.07-.308-.14-.461-.063-.138-.126-.276-.139-.413-17.12-17.302-19.899-44.515-6.644-65.042 1.287.388 2.738.82 4.333 1.26-13.109 19.07-10.637 45.038 5.826 61.179l.507.508.114.716c.122.744.184 1.497.186 2.253-.002 2.37-.606 4.7-1.753 6.763a27.662 27.662 0 006.082-3.967l1.206-1.015 1.32.838a45.585 45.585 0 0024.494 7.124c25.573 0 46.38-21.216 46.38-47.296a48.077 48.077 0 00-1.599-12.32zm-47.965-.964c2.24 0 4.057 1.85 4.057 4.135 0 2.282-1.816 4.133-4.056 4.133s-4.057-1.851-4.057-4.133c0-2.285 1.816-4.135 4.056-4.135zm41.69 4.135c0-2.285-1.816-4.135-4.058-4.135-2.24 0-4.057 1.85-4.057 4.135 0 2.282 1.817 4.133 4.057 4.133 2.242 0 4.058-1.851 4.058-4.133z" fill="#282A36"/></svg>