<svg width="207" height="48" viewBox="0 0 207 48" fill="none" xmlns="http://www.w3.org/2000/svg"><path fill-rule="evenodd" clip-rule="evenodd" d="M39.252 18.435c-.505-2.514-3.298-15.306-7.797-16.094-4.985-.874-6.978 1.198-6.978 1.198S23.318.914 18.331.04C13.838-.748 6.809 10.322 5.468 12.512c-2.498-.187-3.996-.143-4.054.181 0 0-.26 1.365-.28 1.481-.146.819 8.989 3.105 20.403 5.107 11.415 2 21.036 2.96 21.182 2.14.008-.05.28-1.436.28-1.436.058-.323-1.335-.876-3.747-1.55zm-20.694 4.422c.875 0 1.586.716 1.586 1.6 0 .884-.71 1.6-1.586 1.6a1.593 1.593 0 01-1.586-1.6c0-.884.71-1.6 1.586-1.6zm16.297 1.6c0-.884-.71-1.6-1.587-1.6-.876 0-1.586.716-1.586 1.6 0 .884.71 1.6 1.586 1.6.877 0 1.587-.716 1.587-1.6zm4.21-1.106a56.497 56.497 0 01-1.757-.121c.416 1.555.625 3.158.625 4.77 0 10.094-8.134 18.307-18.13 18.307a17.952 17.952 0 01-9.576-2.757l-.516-.325-.471.393a10.824 10.824 0 01-2.378 1.536 5.356 5.356 0 00.613-3.49l-.045-.278-.198-.196C.797 34.942-.17 24.89 4.955 17.508c-.624-.17-1.19-.338-1.694-.488C-1.92 24.966-.834 35.5 5.858 42.197c.005.054.03.107.054.16.028.06.055.12.055.179-.002 2.02-1.72 3.659-3.533 3.661v1.69c2.417-.001 5.324-.911 7.51-2.591A19.45 19.45 0 0019.848 48c10.92 0 19.78-8.972 19.78-19.999a20.172 20.172 0 00-.563-4.65zm159.783-7.61h1.751c1.394 0 1.902.798 1.902 2.544v2.409c0 1.955-.794 2.788-2.26 2.788h-1.393v-7.74zm4.147 20.84H207c-.303-.458-.28-1.182-.254-2.033.008-.255.017-.521.017-.795v-3.77c0-2.55-.626-4.4-2.593-5.204 1.752-.803 2.593-2.444 2.593-4.958v-1.92c0-3.772-1.98-5.732-6.057-5.732h-6.119V36.58h4.261v-9.527h1.214c1.788 0 2.439.554 2.439 2.823v3.841c0 1.661.194 2.13.384 2.585.037.09.074.18.11.278zm-13.887-20.84h-6.697v6.55h4.87v3.573h-4.87v7.145h6.697v3.572h-10.959V12.168h10.959v3.573zm-24.961 0h2.212c1.252 0 2.05.658 2.05 2.404v12.71c0 1.745-.798 2.154-2.05 2.154h-2.212V15.74zm-3.653-3.572V36.58h5.937c3.934 0 5.63-1.99 5.63-5.901V18.32c0-3.91-1.696-6.152-5.63-6.152h-5.937zm-6.696 24.412h-3.861l-4.662-17.563V36.58h-3.653V12.168h4.811l4.321 14.741V12.17h3.044v24.41zm-18.264-20.84h-6.696v6.55h5.479v3.573h-5.479v7.145h6.696v3.572h-10.349V12.168h10.349v3.573zm-23.743 0h-4.261V12.17h12.176v3.572h-4.262v20.84h-3.653v-20.84zm-15.828 0H91.7V12.17h12.176v3.572h-4.261v20.84h-3.653v-20.84zm-21.308 2.404v12.71c0 3.91 2.226 6.145 6.088 6.145s6.088-2.235 6.088-6.145v-12.71c0-3.91-2.227-6.145-6.088-6.145-3.862 0-6.088 2.235-6.088 6.145zm4.262 12.954V17.901c0-1.746.574-2.41 1.826-2.41 1.251 0 1.826.664 1.826 2.41v13.198c0 1.746-.575 2.41-1.826 2.41-1.252 0-1.826-.664-1.826-2.41zM61.262 15.741h1.772c1.395 0 1.88.798 1.88 2.544v1.362c0 1.955-.771 2.644-2.237 2.644h-1.415v-6.55zm0 10.123h1.63c1.787 0 2.631.556 2.631 2.826v2.13c0 1.816-.808 2.189-2.13 2.189h-2.131v-7.145zm7.914-7.963c0-3.772-1.957-5.732-6.035-5.732H57V36.58h6.392c3.934 0 5.784-1.885 5.784-5.656v-1.99c0-2.584-.626-4.435-2.736-5.238 1.752-.803 2.736-2.41 2.736-4.923V17.9z" fill="#fff"/></svg>