<svg width="104" height="40" viewBox="0 0 104 40" fill="none" xmlns="http://www.w3.org/2000/svg"><path fill-rule="evenodd" clip-rule="evenodd" d="M11.428 0l.002 38.225a20.853 20.853 0 01-4.227 1.688 1.978 1.978 0 01-.582.087c-1.125 0-2.04-.935-2.04-2.084 0-.673.312-1.294.841-1.686.012-.01.025-.018.037-.027a18.208 18.208 0 001.471-1.186l-.001-.002-.03-.028a21.585 21.585 0 01-5.038-7.106A21.89 21.89 0 010 18.996c0-3.872 1.012-7.672 2.928-10.99A21.568 21.568 0 0110.611.223c.253-.15.535-.224.817-.224z" fill="url(#paint0_linear)"/><path fill-rule="evenodd" clip-rule="evenodd" d="M7.944 39.755c-.246.078-.492.152-.74.22l.548-.16.192-.06zm.537-.179l-.136.047.136-.047zm.628-.23l-.235.089.235-.09zm.53-.213l-.193.08.194-.08zm.597-.26c-.088.04-.176.08-.264.118l.264-.118zm.514-.241l-.25.12.25-.12zm.518-.262a9.285 9.285 0 01-.222.114l.223-.114zM11.428 0l.17.009c.225.024.446.096.648.215a21.584 21.584 0 017.683 7.794 22.067 22.067 0 012.928 11.008 22.06 22.06 0 01-2.928 11.007 21.584 21.584 0 01-7.683 7.794l-.03.017c-.259.153-.521.3-.786.44V0z" fill="url(#paint1_linear)"/><path fill-rule="evenodd" clip-rule="evenodd" d="M11.43 38.05V0c.283 0 .566.074.82.223a21.54 21.54 0 018.894 10.13L11.43 20l-.001-20 .002 38.05z" fill="#ECF6FE"/><path d="M56.598 15.431c.474 0 .858.388.858.865a.862.862 0 01-.858.865h-2.464c-.62 0-1.035.092-1.388.283a1.75 1.75 0 00-.73.736c-.189.356-.28.775-.28 1.4v3.414c0 .625.091 1.044.28 1.4.17.32.413.565.73.736.31.167.666.258 1.165.278l.223.005h2.464c.474 0 .858.387.858.865a.863.863 0 01-.75.858l-.108.007h-2.464c-.887 0-1.578-.154-2.198-.488a3.47 3.47 0 01-1.433-1.445c-.289-.544-.441-1.145-.476-1.883l-.006-.19v.02a.947.947 0 01-.001-.051v-3.638l.001-.05v.096l.005-.225c.03-.758.183-1.37.477-1.926a3.47 3.47 0 011.433-1.444c.62-.334 1.31-.488 2.198-.488h2.464zm-12.551-.288c.887 0 1.578.153 2.198.487a3.471 3.471 0 011.433 1.445c.33.625.483 1.322.483 2.216v3.526c0 .895-.152 1.592-.483 2.217a3.47 3.47 0 01-1.433 1.445c-.62.334-1.31.487-2.198.487h-.351c-.888 0-1.58-.154-2.198-.488a3.47 3.47 0 01-1.433-1.444c-.332-.625-.484-1.322-.484-2.217v-3.526c0-.895.152-1.591.484-2.216a3.472 3.472 0 011.433-1.445c.619-.334 1.31-.487 2.198-.487h.35zm52.179 0c2.018 0 3.176 1.292 3.622 3.283.178.796.221 1.467.221 2.449V26.1a.862.862 0 01-.858.865.862.862 0 01-.858-.865v-2.884h-4.577l.001 2.74a.862.862 0 01-.858.865.862.862 0 01-.858-.865v-5.082c0-.982.043-1.654.22-2.449.447-1.99 1.605-3.283 3.623-3.283h.322zm-22.722 0c.887 0 1.579.153 2.198.487a3.471 3.471 0 011.433 1.445c.331.625.483 1.322.483 2.216v3.526c0 .895-.152 1.592-.483 2.217a3.47 3.47 0 01-1.433 1.445c-.62.334-1.31.487-2.198.487h-.351c-.888 0-1.579-.154-2.198-.488a3.47 3.47 0 01-1.433-1.444c-.331-.625-.483-1.322-.483-2.217v-3.526c0-.895.152-1.591.483-2.216.33-.62.817-1.113 1.433-1.445.62-.334 1.31-.487 2.198-.487h.351zm-6.324 0c.473 0 .858.387.858.865a.863.863 0 01-.75.858l-.108.007h-2.934V26.1a.863.863 0 01-.75.858l-.107.007a.86.86 0 01-.852-.757l-.006-.108v-9.228h-2.787a.862.862 0 01-.858-.865c0-.441.327-.805.75-.858l.108-.007h7.436zm35.962 0a.86.86 0 01.851.756l.007.109V26.1a.861.861 0 01-.858.865.86.86 0 01-.851-.757l-.007-.108V16.008c0-.478.384-.865.858-.865zm-14.227 9.516c.632 0 1.144.516 1.144 1.153s-.512 1.154-1.144 1.154a1.149 1.149 0 01-1.144-1.154c0-.637.512-1.153 1.144-1.153zm-50.939-9.13a.868.868 0 01.408 1.068l-.044.1-3.352 6.476-.056 2.944a.861.861 0 01-.874.849.86.86 0 01-.837-.773l-.004-.109.055-2.966-3.453-6.409a.87.87 0 01.252-1.115l.092-.058a.854.854 0 011.106.255l.057.092 2.806 5.205 2.687-5.192a.854.854 0 011.157-.367zm42.645-.386a.86.86 0 01.852.756l.006.109v6.698c0 .625.092 1.043.28 1.4.17.32.413.565.73.735.31.167.666.259 1.166.279l.223.004h1.32c.473 0 .857.388.857.865a.863.863 0 01-.75.859l-.108.007h-1.32c-.887 0-1.578-.154-2.197-.488a3.47 3.47 0 01-1.433-1.445c-.295-.555-.448-1.167-.478-1.925l-.006-.291v-6.698c0-.478.384-.865.858-.865zm-36.574 1.73h-.351c-.62 0-1.035.092-1.39.283-.316.17-.559.416-.728.735-.19.357-.28.775-.28 1.4v3.526c0 .625.09 1.044.28 1.4.169.32.412.565.729.736.354.19.769.283 1.389.283h.35c.62 0 1.035-.092 1.39-.283.316-.17.56-.416.728-.735.19-.357.281-.776.281-1.4V19.29c0-.625-.091-1.043-.28-1.4a1.749 1.749 0 00-.73-.735c-.354-.19-.768-.283-1.388-.283zm29.457 0h-.351c-.62 0-1.035.092-1.389.283-.316.17-.56.416-.729.735-.19.357-.28.775-.28 1.4v3.526c0 .625.09 1.044.28 1.4.17.32.413.565.73.736.353.19.768.283 1.388.283h.351c.62 0 1.035-.092 1.389-.283.316-.17.56-.416.729-.735.19-.357.28-.776.28-1.4V19.29c0-.625-.09-1.043-.28-1.4a1.749 1.749 0 00-.73-.735c-.353-.19-.768-.283-1.388-.283zm22.722 0h-.322c-1.08 0-1.66.649-1.948 1.934-.143.636-.179 1.207-.179 2.068v.612h4.575l.001-.612c0-.86-.036-1.432-.179-2.068-.288-1.285-.869-1.934-1.948-1.934z" fill="#fff"/><defs><linearGradient id="paint0_linear" x1="5.715" y1="10.508" x2="5.715" y2="40" gradientUnits="userSpaceOnUse"><stop stop-color="#13BDFF"/><stop offset="1" stop-color="#3F83FF"/></linearGradient><linearGradient id="paint1_linear" x1="15.03" y1="9.362" x2="15.03" y2="39.975" gradientUnits="userSpaceOnUse"><stop stop-color="#D8EDFF"/><stop offset="1" stop-color="#8DC9FF"/></linearGradient></defs></svg>